<?xml version="1.0" encoding="UTF-8" standalone="no"?>
<!DOCTYPE svg PUBLIC "-//W3C//DTD SVG 1.1//EN" "http://www.w3.org/Graphics/SVG/1.1/DTD/svg11.dtd">
<svg width="100%" height="100%" viewBox="0 0 800 175" version="1.1" xmlns="http://www.w3.org/2000/svg" xmlns:xlink="http://www.w3.org/1999/xlink" xml:space="preserve" xmlns:serif="http://www.serif.com/" style="fill-rule:evenodd;clip-rule:evenodd;stroke-linejoin:round;stroke-miterlimit:2;">
    <g id="Artboard1" transform="matrix(1,0,0,0.290776,0,0)">
        <rect x="0" y="0" width="800" height="600" style="fill:none;"/>
        <clipPath id="_clip1">
            <rect x="0" y="0" width="800" height="600"/>
        </clipPath>
        <g clip-path="url(#_clip1)">
            <g transform="matrix(0.683777,0,0,0.683777,118.296,61.069)">
                <g transform="matrix(8.01583,0,0,27.567,-927.985,-4961.44)">
                    <path d="M120.509,182.377C120.349,182.145 120.135,181.975 119.867,181.867C119.599,181.759 119.317,181.705 119.021,181.705C118.845,181.705 118.675,181.725 118.511,181.765C118.347,181.805 118.199,181.869 118.067,181.957C117.935,182.045 117.829,182.159 117.749,182.299C117.669,182.439 117.629,182.605 117.629,182.797C117.629,183.085 117.729,183.305 117.929,183.457C118.129,183.609 118.377,183.741 118.673,183.853C118.969,183.965 119.293,184.073 119.645,184.177C119.997,184.281 120.321,184.425 120.617,184.609C120.913,184.793 121.161,185.037 121.361,185.341C121.561,185.645 121.661,186.049 121.661,186.553C121.661,187.009 121.577,187.407 121.409,187.747C121.241,188.087 121.015,188.369 120.731,188.593C120.447,188.817 120.117,188.985 119.741,189.097C119.365,189.209 118.969,189.265 118.553,189.265C118.025,189.265 117.517,189.177 117.029,189.001C116.541,188.825 116.121,188.529 115.769,188.113L116.909,187.009C117.093,187.289 117.335,187.507 117.635,187.663C117.935,187.819 118.253,187.897 118.589,187.897C118.765,187.897 118.941,187.873 119.117,187.825C119.293,187.777 119.453,187.705 119.597,187.609C119.741,187.513 119.857,187.391 119.945,187.243C120.033,187.095 120.077,186.925 120.077,186.733C120.077,186.421 119.977,186.181 119.777,186.013C119.577,185.845 119.329,185.703 119.033,185.587C118.737,185.471 118.413,185.361 118.061,185.257C117.709,185.153 117.385,185.011 117.089,184.831C116.793,184.651 116.545,184.411 116.345,184.111C116.145,183.811 116.045,183.409 116.045,182.905C116.045,182.465 116.135,182.085 116.315,181.765C116.495,181.445 116.731,181.179 117.023,180.967C117.315,180.755 117.649,180.597 118.025,180.493C118.401,180.389 118.785,180.337 119.177,180.337C119.625,180.337 120.059,180.405 120.479,180.541C120.899,180.677 121.277,180.901 121.613,181.213L120.509,182.377Z" style="fill:rgb(0,18,83);fill-rule:nonzero;"/>
                    <path d="M122.429,184.513L122.429,183.289L123.617,183.289L123.617,181.621L125.057,181.621L125.057,183.289L126.641,183.289L126.641,184.513L125.057,184.513L125.057,187.033C125.057,187.321 125.111,187.549 125.219,187.717C125.327,187.885 125.541,187.969 125.861,187.969C125.989,187.969 126.129,187.955 126.281,187.927C126.433,187.899 126.553,187.853 126.641,187.789L126.641,189.001C126.489,189.073 126.303,189.123 126.083,189.151C125.863,189.179 125.669,189.193 125.501,189.193C125.117,189.193 124.803,189.151 124.559,189.067C124.315,188.983 124.123,188.855 123.983,188.683C123.843,188.511 123.747,188.297 123.695,188.041C123.643,187.785 123.617,187.489 123.617,187.153L123.617,184.513L122.429,184.513Z" style="fill:rgb(0,18,83);fill-rule:nonzero;"/>
                    <path d="M127.769,183.289L129.209,183.289L129.209,184.201L129.233,184.201C129.393,183.865 129.621,183.605 129.917,183.421C130.213,183.237 130.553,183.145 130.937,183.145C131.025,183.145 131.111,183.153 131.195,183.169C131.279,183.185 131.365,183.205 131.453,183.229L131.453,184.621C131.333,184.589 131.215,184.563 131.099,184.543C130.983,184.523 130.869,184.513 130.757,184.513C130.421,184.513 130.151,184.575 129.947,184.699C129.743,184.823 129.587,184.965 129.479,185.125C129.371,185.285 129.299,185.445 129.263,185.605C129.227,185.765 129.209,185.885 129.209,185.965L129.209,189.049L127.769,189.049L127.769,183.289Z" style="fill:rgb(0,18,83);fill-rule:nonzero;"/>
                    <path d="M131.933,186.169C131.933,185.713 132.015,185.299 132.179,184.927C132.343,184.555 132.565,184.237 132.845,183.973C133.125,183.709 133.457,183.505 133.841,183.361C134.225,183.217 134.633,183.145 135.065,183.145C135.497,183.145 135.905,183.217 136.289,183.361C136.673,183.505 137.005,183.709 137.285,183.973C137.565,184.237 137.787,184.555 137.951,184.927C138.115,185.299 138.197,185.713 138.197,186.169C138.197,186.625 138.115,187.039 137.951,187.411C137.787,187.783 137.565,188.101 137.285,188.365C137.005,188.629 136.673,188.833 136.289,188.977C135.905,189.121 135.497,189.193 135.065,189.193C134.633,189.193 134.225,189.121 133.841,188.977C133.457,188.833 133.125,188.629 132.845,188.365C132.565,188.101 132.343,187.783 132.179,187.411C132.015,187.039 131.933,186.625 131.933,186.169ZM133.373,186.169C133.373,186.393 133.411,186.609 133.487,186.817C133.563,187.025 133.675,187.209 133.823,187.369C133.971,187.529 134.149,187.657 134.357,187.753C134.565,187.849 134.801,187.897 135.065,187.897C135.329,187.897 135.565,187.849 135.773,187.753C135.981,187.657 136.159,187.529 136.307,187.369C136.455,187.209 136.567,187.025 136.643,186.817C136.719,186.609 136.757,186.393 136.757,186.169C136.757,185.945 136.719,185.729 136.643,185.521C136.567,185.313 136.455,185.129 136.307,184.969C136.159,184.809 135.981,184.681 135.773,184.585C135.565,184.489 135.329,184.441 135.065,184.441C134.801,184.441 134.565,184.489 134.357,184.585C134.149,184.681 133.971,184.809 133.823,184.969C133.675,185.129 133.563,185.313 133.487,185.521C133.411,185.729 133.373,185.945 133.373,186.169Z" style="fill:rgb(0,18,83);fill-rule:nonzero;"/>
                    <path d="M139.541,179.977L140.981,179.977L140.981,185.677L143.201,183.289L145.049,183.289L142.577,185.905L145.205,189.049L143.297,189.049L141.005,186.109L140.981,186.109L140.981,189.049L139.541,189.049L139.541,179.977Z" style="fill:rgb(0,18,83);fill-rule:nonzero;"/>
                    <path d="M147.137,186.673C147.185,187.105 147.353,187.441 147.641,187.681C147.929,187.921 148.277,188.041 148.685,188.041C149.045,188.041 149.347,187.967 149.591,187.819C149.835,187.671 150.049,187.485 150.233,187.261L151.265,188.041C150.929,188.457 150.553,188.753 150.137,188.929C149.721,189.105 149.285,189.193 148.829,189.193C148.397,189.193 147.989,189.121 147.605,188.977C147.221,188.833 146.889,188.629 146.609,188.365C146.329,188.101 146.107,187.783 145.943,187.411C145.779,187.039 145.697,186.625 145.697,186.169C145.697,185.713 145.779,185.299 145.943,184.927C146.107,184.555 146.329,184.237 146.609,183.973C146.889,183.709 147.221,183.505 147.605,183.361C147.989,183.217 148.397,183.145 148.829,183.145C149.229,183.145 149.595,183.215 149.927,183.355C150.259,183.495 150.543,183.697 150.779,183.961C151.015,184.225 151.199,184.551 151.331,184.939C151.463,185.327 151.529,185.773 151.529,186.277L151.529,186.673L147.137,186.673ZM150.089,185.593C150.081,185.169 149.949,184.835 149.693,184.591C149.437,184.347 149.081,184.225 148.625,184.225C148.193,184.225 147.851,184.349 147.599,184.597C147.347,184.845 147.193,185.177 147.137,185.593L150.089,185.593Z" style="fill:rgb(0,18,83);fill-rule:nonzero;"/>
                    <path d="M156.557,180.553L159.413,180.553C159.821,180.553 160.215,180.593 160.595,180.673C160.975,180.753 161.309,180.887 161.597,181.075C161.885,181.263 162.115,181.515 162.287,181.831C162.459,182.147 162.545,182.541 162.545,183.013C162.545,183.549 162.453,183.981 162.269,184.309C162.085,184.637 161.837,184.891 161.525,185.071C161.213,185.251 160.851,185.373 160.439,185.437C160.027,185.501 159.597,185.533 159.149,185.533L158.069,185.533L158.069,189.049L156.557,189.049L156.557,180.553ZM158.981,184.237C159.197,184.237 159.421,184.229 159.653,184.213C159.885,184.197 160.099,184.149 160.295,184.069C160.491,183.989 160.651,183.869 160.775,183.709C160.899,183.549 160.961,183.325 160.961,183.037C160.961,182.773 160.905,182.563 160.793,182.407C160.681,182.251 160.537,182.131 160.361,182.047C160.185,181.963 159.989,181.909 159.773,181.885C159.557,181.861 159.349,181.849 159.149,181.849L158.069,181.849L158.069,184.237L158.981,184.237Z" style="fill:rgb(0,18,83);fill-rule:nonzero;"/>
                    <path d="M163.757,183.289L165.197,183.289L165.197,184.201L165.221,184.201C165.381,183.865 165.609,183.605 165.905,183.421C166.201,183.237 166.541,183.145 166.925,183.145C167.013,183.145 167.099,183.153 167.183,183.169C167.267,183.185 167.353,183.205 167.441,183.229L167.441,184.621C167.321,184.589 167.203,184.563 167.087,184.543C166.971,184.523 166.857,184.513 166.745,184.513C166.409,184.513 166.139,184.575 165.935,184.699C165.731,184.823 165.575,184.965 165.467,185.125C165.359,185.285 165.287,185.445 165.251,185.605C165.215,185.765 165.197,185.885 165.197,185.965L165.197,189.049L163.757,189.049L163.757,183.289Z" style="fill:rgb(0,18,83);fill-rule:nonzero;"/>
                    <path d="M169.361,186.673C169.409,187.105 169.577,187.441 169.865,187.681C170.153,187.921 170.501,188.041 170.909,188.041C171.269,188.041 171.571,187.967 171.815,187.819C172.059,187.671 172.273,187.485 172.457,187.261L173.489,188.041C173.153,188.457 172.777,188.753 172.361,188.929C171.945,189.105 171.509,189.193 171.053,189.193C170.621,189.193 170.213,189.121 169.829,188.977C169.445,188.833 169.113,188.629 168.833,188.365C168.553,188.101 168.331,187.783 168.167,187.411C168.003,187.039 167.921,186.625 167.921,186.169C167.921,185.713 168.003,185.299 168.167,184.927C168.331,184.555 168.553,184.237 168.833,183.973C169.113,183.709 169.445,183.505 169.829,183.361C170.213,183.217 170.621,183.145 171.053,183.145C171.453,183.145 171.819,183.215 172.151,183.355C172.483,183.495 172.767,183.697 173.003,183.961C173.239,184.225 173.423,184.551 173.555,184.939C173.687,185.327 173.753,185.773 173.753,186.277L173.753,186.673L169.361,186.673ZM172.313,185.593C172.305,185.169 172.173,184.835 171.917,184.591C171.661,184.347 171.305,184.225 170.849,184.225C170.417,184.225 170.075,184.349 169.823,184.597C169.571,184.845 169.417,185.177 169.361,185.593L172.313,185.593Z" style="fill:rgb(0,18,83);fill-rule:nonzero;"/>
                    <path d="M179.657,188.185L179.633,188.185C179.425,188.537 179.145,188.793 178.793,188.953C178.441,189.113 178.061,189.193 177.653,189.193C177.205,189.193 176.807,189.115 176.459,188.959C176.111,188.803 175.813,188.589 175.565,188.317C175.317,188.045 175.129,187.725 175.001,187.357C174.873,186.989 174.809,186.593 174.809,186.169C174.809,185.745 174.877,185.349 175.013,184.981C175.149,184.613 175.339,184.293 175.583,184.021C175.827,183.749 176.121,183.535 176.465,183.379C176.809,183.223 177.185,183.145 177.593,183.145C177.865,183.145 178.105,183.173 178.313,183.229C178.521,183.285 178.705,183.357 178.865,183.445C179.025,183.533 179.161,183.627 179.273,183.727C179.385,183.827 179.477,183.925 179.549,184.021L179.585,184.021L179.585,179.977L181.025,179.977L181.025,189.049L179.657,189.049L179.657,188.185ZM176.249,186.169C176.249,186.393 176.287,186.609 176.363,186.817C176.439,187.025 176.551,187.209 176.699,187.369C176.847,187.529 177.025,187.657 177.233,187.753C177.441,187.849 177.677,187.897 177.941,187.897C178.205,187.897 178.441,187.849 178.649,187.753C178.857,187.657 179.035,187.529 179.183,187.369C179.331,187.209 179.443,187.025 179.519,186.817C179.595,186.609 179.633,186.393 179.633,186.169C179.633,185.945 179.595,185.729 179.519,185.521C179.443,185.313 179.331,185.129 179.183,184.969C179.035,184.809 178.857,184.681 178.649,184.585C178.441,184.489 178.205,184.441 177.941,184.441C177.677,184.441 177.441,184.489 177.233,184.585C177.025,184.681 176.847,184.809 176.699,184.969C176.551,185.129 176.439,185.313 176.363,185.521C176.287,185.729 176.249,185.945 176.249,186.169Z" style="fill:rgb(0,18,83);fill-rule:nonzero;"/>
                    <path d="M182.693,183.289L184.133,183.289L184.133,189.049L182.693,189.049L182.693,183.289ZM182.489,181.333C182.489,181.101 182.575,180.899 182.747,180.727C182.919,180.555 183.137,180.469 183.401,180.469C183.665,180.469 183.887,180.551 184.067,180.715C184.247,180.879 184.337,181.085 184.337,181.333C184.337,181.581 184.247,181.787 184.067,181.951C183.887,182.115 183.665,182.197 183.401,182.197C183.137,182.197 182.919,182.111 182.747,181.939C182.575,181.767 182.489,181.565 182.489,181.333Z" style="fill:rgb(0,18,83);fill-rule:nonzero;"/>
                    <path d="M189.725,185.017C189.557,184.841 189.381,184.701 189.197,184.597C189.013,184.493 188.825,184.441 188.633,184.441C188.369,184.441 188.133,184.489 187.925,184.585C187.717,184.681 187.539,184.809 187.391,184.969C187.243,185.129 187.131,185.313 187.055,185.521C186.979,185.729 186.941,185.945 186.941,186.169C186.941,186.393 186.979,186.609 187.055,186.817C187.131,187.025 187.243,187.209 187.391,187.369C187.539,187.529 187.717,187.657 187.925,187.753C188.133,187.849 188.369,187.897 188.633,187.897C188.857,187.897 189.065,187.851 189.257,187.759C189.449,187.667 189.613,187.533 189.749,187.357L190.709,188.389C190.565,188.533 190.399,188.657 190.211,188.761C190.023,188.865 189.833,188.949 189.641,189.013C189.449,189.077 189.265,189.123 189.089,189.151C188.913,189.179 188.761,189.193 188.633,189.193C188.201,189.193 187.793,189.121 187.409,188.977C187.025,188.833 186.693,188.629 186.413,188.365C186.133,188.101 185.911,187.783 185.747,187.411C185.583,187.039 185.501,186.625 185.501,186.169C185.501,185.713 185.583,185.299 185.747,184.927C185.911,184.555 186.133,184.237 186.413,183.973C186.693,183.709 187.025,183.505 187.409,183.361C187.793,183.217 188.201,183.145 188.633,183.145C189.001,183.145 189.371,183.215 189.743,183.355C190.115,183.495 190.441,183.717 190.721,184.021L189.725,185.017Z" style="fill:rgb(0,18,83);fill-rule:nonzero;"/>
                    <path d="M190.901,184.513L190.901,183.289L192.089,183.289L192.089,181.621L193.529,181.621L193.529,183.289L195.113,183.289L195.113,184.513L193.529,184.513L193.529,187.033C193.529,187.321 193.583,187.549 193.691,187.717C193.799,187.885 194.013,187.969 194.333,187.969C194.461,187.969 194.601,187.955 194.753,187.927C194.905,187.899 195.025,187.853 195.113,187.789L195.113,189.001C194.961,189.073 194.775,189.123 194.555,189.151C194.335,189.179 194.141,189.193 193.973,189.193C193.589,189.193 193.275,189.151 193.031,189.067C192.787,188.983 192.595,188.855 192.455,188.683C192.315,188.511 192.219,188.297 192.167,188.041C192.115,187.785 192.089,187.489 192.089,187.153L192.089,184.513L190.901,184.513Z" style="fill:rgb(0,18,83);fill-rule:nonzero;"/>
                    <path d="M196.277,183.289L197.717,183.289L197.717,189.049L196.277,189.049L196.277,183.289ZM196.073,181.333C196.073,181.101 196.159,180.899 196.331,180.727C196.503,180.555 196.721,180.469 196.985,180.469C197.249,180.469 197.471,180.551 197.651,180.715C197.831,180.879 197.921,181.085 197.921,181.333C197.921,181.581 197.831,181.787 197.651,181.951C197.471,182.115 197.249,182.197 196.985,182.197C196.721,182.197 196.503,182.111 196.331,181.939C196.159,181.767 196.073,181.565 196.073,181.333Z" style="fill:rgb(0,18,83);fill-rule:nonzero;"/>
                    <path d="M199.085,186.169C199.085,185.713 199.167,185.299 199.331,184.927C199.495,184.555 199.717,184.237 199.997,183.973C200.277,183.709 200.609,183.505 200.993,183.361C201.377,183.217 201.785,183.145 202.217,183.145C202.649,183.145 203.057,183.217 203.441,183.361C203.825,183.505 204.157,183.709 204.437,183.973C204.717,184.237 204.939,184.555 205.103,184.927C205.267,185.299 205.349,185.713 205.349,186.169C205.349,186.625 205.267,187.039 205.103,187.411C204.939,187.783 204.717,188.101 204.437,188.365C204.157,188.629 203.825,188.833 203.441,188.977C203.057,189.121 202.649,189.193 202.217,189.193C201.785,189.193 201.377,189.121 200.993,188.977C200.609,188.833 200.277,188.629 199.997,188.365C199.717,188.101 199.495,187.783 199.331,187.411C199.167,187.039 199.085,186.625 199.085,186.169ZM200.525,186.169C200.525,186.393 200.563,186.609 200.639,186.817C200.715,187.025 200.827,187.209 200.975,187.369C201.123,187.529 201.301,187.657 201.509,187.753C201.717,187.849 201.953,187.897 202.217,187.897C202.481,187.897 202.717,187.849 202.925,187.753C203.133,187.657 203.311,187.529 203.459,187.369C203.607,187.209 203.719,187.025 203.795,186.817C203.871,186.609 203.909,186.393 203.909,186.169C203.909,185.945 203.871,185.729 203.795,185.521C203.719,185.313 203.607,185.129 203.459,184.969C203.311,184.809 203.133,184.681 202.925,184.585C202.717,184.489 202.481,184.441 202.217,184.441C201.953,184.441 201.717,184.489 201.509,184.585C201.301,184.681 201.123,184.809 200.975,184.969C200.827,185.129 200.715,185.313 200.639,185.521C200.563,185.729 200.525,185.945 200.525,186.169Z" style="fill:rgb(0,18,83);fill-rule:nonzero;"/>
                    <path d="M206.693,183.289L208.061,183.289L208.061,184.213L208.085,184.213C208.221,183.925 208.429,183.675 208.709,183.463C208.989,183.251 209.369,183.145 209.849,183.145C210.233,183.145 210.559,183.209 210.827,183.337C211.095,183.465 211.313,183.633 211.481,183.841C211.649,184.049 211.769,184.289 211.841,184.561C211.913,184.833 211.949,185.117 211.949,185.413L211.949,189.049L210.509,189.049L210.509,186.133C210.509,185.973 210.501,185.795 210.485,185.599C210.469,185.403 210.427,185.219 210.359,185.047C210.291,184.875 210.185,184.731 210.041,184.615C209.897,184.499 209.701,184.441 209.453,184.441C209.213,184.441 209.011,184.481 208.847,184.561C208.683,184.641 208.547,184.749 208.439,184.885C208.331,185.021 208.253,185.177 208.205,185.353C208.157,185.529 208.133,185.713 208.133,185.905L208.133,189.049L206.693,189.049L206.693,183.289Z" style="fill:rgb(0,18,83);fill-rule:nonzero;"/>
                </g>
                <g transform="matrix(4.41453,0,0,15.1819,-652.139,-3553.1)">
                    <path d="M155.292,261.524C155.148,261.74 154.97,261.944 154.758,262.136C154.546,262.328 154.304,262.494 154.032,262.634C153.76,262.774 153.466,262.884 153.15,262.964C152.834,263.044 152.5,263.084 152.148,263.084C151.516,263.084 150.93,262.972 150.39,262.748C149.85,262.524 149.382,262.214 148.986,261.818C148.59,261.422 148.28,260.952 148.056,260.408C147.832,259.864 147.72,259.268 147.72,258.62C147.72,257.972 147.832,257.376 148.056,256.832C148.28,256.288 148.59,255.818 148.986,255.422C149.382,255.026 149.85,254.716 150.39,254.492C150.93,254.268 151.516,254.156 152.148,254.156C152.676,254.156 153.204,254.26 153.732,254.468C154.26,254.676 154.712,255.02 155.088,255.5L154.332,256.064C154.244,255.928 154.124,255.792 153.972,255.656C153.82,255.52 153.646,255.4 153.45,255.296C153.254,255.192 153.044,255.108 152.82,255.044C152.596,254.98 152.372,254.948 152.148,254.948C151.604,254.948 151.116,255.048 150.684,255.248C150.252,255.448 149.886,255.716 149.586,256.052C149.286,256.388 149.056,256.778 148.896,257.222C148.736,257.666 148.656,258.132 148.656,258.62C148.656,259.108 148.736,259.574 148.896,260.018C149.056,260.462 149.286,260.852 149.586,261.188C149.886,261.524 150.252,261.792 150.684,261.992C151.116,262.192 151.604,262.292 152.148,262.292C152.372,262.292 152.594,262.272 152.814,262.232C153.034,262.192 153.25,262.124 153.462,262.028C153.674,261.932 153.874,261.802 154.062,261.638C154.25,261.474 154.424,261.268 154.584,261.02L155.292,261.524Z" style="fill:rgb(62,109,156);fill-rule:nonzero;"/>
                    <rect x="156.636" y="253.796" width="0.792" height="9.072" style="fill:rgb(62,109,156);fill-rule:nonzero;"/>
                    <path d="M160.488,255.092C160.488,255.26 160.428,255.398 160.308,255.506C160.188,255.614 160.056,255.668 159.912,255.668C159.768,255.668 159.636,255.614 159.516,255.506C159.396,255.398 159.336,255.26 159.336,255.092C159.336,254.924 159.396,254.786 159.516,254.678C159.636,254.57 159.768,254.516 159.912,254.516C160.056,254.516 160.188,254.57 160.308,254.678C160.428,254.786 160.488,254.924 160.488,255.092ZM160.308,262.868L159.516,262.868L159.516,257.252L160.308,257.252L160.308,262.868Z" style="fill:rgb(62,109,156);fill-rule:nonzero;"/>
                    <path d="M162.972,257.252C162.988,257.404 162.998,257.554 163.002,257.702C163.006,257.85 163.008,258 163.008,258.152L163.032,258.152C163.12,258 163.232,257.86 163.368,257.732C163.504,257.604 163.656,257.494 163.824,257.402C163.992,257.31 164.17,257.238 164.358,257.186C164.546,257.134 164.732,257.108 164.916,257.108C165.636,257.108 166.168,257.298 166.512,257.678C166.856,258.058 167.028,258.6 167.028,259.304L167.028,262.868L166.236,262.868L166.236,259.76C166.236,259.136 166.128,258.658 165.912,258.326C165.696,257.994 165.296,257.828 164.712,257.828C164.672,257.828 164.56,257.844 164.376,257.876C164.192,257.908 163.998,257.996 163.794,258.14C163.59,258.284 163.408,258.5 163.248,258.788C163.088,259.076 163.008,259.476 163.008,259.988L163.008,262.868L162.216,262.868L162.216,258.488C162.216,258.336 162.21,258.144 162.198,257.912C162.186,257.68 162.172,257.46 162.156,257.252L162.972,257.252Z" style="fill:rgb(62,109,156);fill-rule:nonzero;"/>
                    <path d="M170.04,255.092C170.04,255.26 169.98,255.398 169.86,255.506C169.74,255.614 169.608,255.668 169.464,255.668C169.32,255.668 169.188,255.614 169.068,255.506C168.948,255.398 168.888,255.26 168.888,255.092C168.888,254.924 168.948,254.786 169.068,254.678C169.188,254.57 169.32,254.516 169.464,254.516C169.608,254.516 169.74,254.57 169.86,254.678C169.98,254.786 170.04,254.924 170.04,255.092ZM169.86,262.868L169.068,262.868L169.068,257.252L169.86,257.252L169.86,262.868Z" style="fill:rgb(62,109,156);fill-rule:nonzero;"/>
                    <path d="M175.86,258.572C175.724,258.364 175.534,258.188 175.29,258.044C175.046,257.9 174.768,257.828 174.456,257.828C174.128,257.82 173.834,257.872 173.574,257.984C173.314,258.096 173.092,258.252 172.908,258.452C172.724,258.652 172.584,258.89 172.488,259.166C172.392,259.442 172.344,259.74 172.344,260.06C172.344,260.38 172.392,260.678 172.488,260.954C172.584,261.23 172.724,261.468 172.908,261.668C173.092,261.868 173.314,262.024 173.574,262.136C173.834,262.248 174.128,262.3 174.456,262.292C174.768,262.292 175.046,262.22 175.29,262.076C175.534,261.932 175.724,261.756 175.86,261.548L176.508,262.04C176.228,262.368 175.912,262.61 175.56,262.766C175.208,262.922 174.84,263.004 174.456,263.012C174,263.02 173.588,262.95 173.22,262.802C172.852,262.654 172.538,262.448 172.278,262.184C172.018,261.92 171.82,261.606 171.684,261.242C171.548,260.878 171.48,260.484 171.48,260.06C171.48,259.636 171.548,259.242 171.684,258.878C171.82,258.514 172.018,258.2 172.278,257.936C172.538,257.672 172.852,257.466 173.22,257.318C173.588,257.17 174,257.1 174.456,257.108C174.84,257.116 175.208,257.198 175.56,257.354C175.912,257.51 176.228,257.752 176.508,258.08L175.86,258.572Z" style="fill:rgb(62,109,156);fill-rule:nonzero;"/>
                    <path d="M180.744,260.072C180.544,260.072 180.294,260.082 179.994,260.102C179.694,260.122 179.406,260.17 179.13,260.246C178.854,260.322 178.618,260.44 178.422,260.6C178.226,260.76 178.128,260.98 178.128,261.26C178.128,261.444 178.166,261.602 178.242,261.734C178.318,261.866 178.42,261.974 178.548,262.058C178.676,262.142 178.818,262.202 178.974,262.238C179.13,262.274 179.288,262.292 179.448,262.292C179.736,262.292 179.986,262.244 180.198,262.148C180.41,262.052 180.588,261.922 180.732,261.758C180.876,261.594 180.982,261.402 181.05,261.182C181.118,260.962 181.152,260.728 181.152,260.48L181.152,260.072L180.744,260.072ZM181.152,259.424L181.152,259.28C181.152,258.312 180.672,257.828 179.712,257.828C179.056,257.828 178.484,258.048 177.996,258.488L177.516,257.924C178.044,257.38 178.836,257.108 179.892,257.108C180.164,257.108 180.426,257.148 180.678,257.228C180.93,257.308 181.148,257.43 181.332,257.594C181.516,257.758 181.664,257.964 181.776,258.212C181.888,258.46 181.944,258.756 181.944,259.1L181.944,261.608C181.944,261.824 181.954,262.05 181.974,262.286C181.994,262.522 182.016,262.716 182.04,262.868L181.272,262.868C181.248,262.732 181.23,262.584 181.218,262.424C181.206,262.264 181.2,262.108 181.2,261.956L181.176,261.956C180.944,262.332 180.67,262.602 180.354,262.766C180.038,262.93 179.652,263.012 179.196,263.012C178.948,263.012 178.708,262.978 178.476,262.91C178.244,262.842 178.038,262.738 177.858,262.598C177.678,262.458 177.534,262.286 177.426,262.082C177.318,261.878 177.264,261.64 177.264,261.368C177.264,260.912 177.382,260.554 177.618,260.294C177.854,260.034 178.15,259.84 178.506,259.712C178.862,259.584 179.242,259.504 179.646,259.472C180.05,259.44 180.42,259.424 180.756,259.424L181.152,259.424Z" style="fill:rgb(62,109,156);fill-rule:nonzero;"/>
                    <rect x="183.96" y="253.796" width="0.792" height="9.072" style="fill:rgb(62,109,156);fill-rule:nonzero;"/>
                    <path d="M191.028,262.076L192.708,262.076C193.356,262.076 193.918,261.978 194.394,261.782C194.87,261.586 195.266,261.326 195.582,261.002C195.898,260.678 196.132,260.31 196.284,259.898C196.436,259.486 196.512,259.06 196.512,258.62C196.512,258.18 196.436,257.754 196.284,257.342C196.132,256.93 195.898,256.562 195.582,256.238C195.266,255.914 194.87,255.654 194.394,255.458C193.918,255.262 193.356,255.164 192.708,255.164L191.028,255.164L191.028,262.076ZM190.164,254.372L192.984,254.372C193.512,254.372 194.042,254.46 194.574,254.636C195.106,254.812 195.586,255.078 196.014,255.434C196.442,255.79 196.788,256.234 197.052,256.766C197.316,257.298 197.448,257.916 197.448,258.62C197.448,259.332 197.316,259.952 197.052,260.48C196.788,261.008 196.442,261.45 196.014,261.806C195.586,262.162 195.106,262.428 194.574,262.604C194.042,262.78 193.512,262.868 192.984,262.868L190.164,262.868L190.164,254.372Z" style="fill:rgb(62,109,156);fill-rule:nonzero;"/>
                    <path d="M203.256,259.628C203.256,259.092 203.096,258.658 202.776,258.326C202.456,257.994 202.008,257.828 201.432,257.828C201.176,257.828 200.928,257.878 200.688,257.978C200.448,258.078 200.238,258.212 200.058,258.38C199.878,258.548 199.734,258.74 199.626,258.956C199.518,259.172 199.464,259.396 199.464,259.628L203.256,259.628ZM199.44,260.276C199.464,260.556 199.532,260.82 199.644,261.068C199.756,261.316 199.904,261.53 200.088,261.71C200.272,261.89 200.484,262.032 200.724,262.136C200.964,262.24 201.224,262.292 201.504,262.292C201.928,262.292 202.294,262.194 202.602,261.998C202.91,261.802 203.144,261.576 203.304,261.32L203.916,261.824C203.58,262.248 203.21,262.552 202.806,262.736C202.402,262.92 201.968,263.012 201.504,263.012C201.088,263.012 200.702,262.938 200.346,262.79C199.99,262.642 199.684,262.436 199.428,262.172C199.172,261.908 198.97,261.596 198.822,261.236C198.674,260.876 198.6,260.484 198.6,260.06C198.6,259.636 198.672,259.244 198.816,258.884C198.96,258.524 199.16,258.212 199.416,257.948C199.672,257.684 199.972,257.478 200.316,257.33C200.66,257.182 201.032,257.108 201.432,257.108C201.856,257.108 202.236,257.184 202.572,257.336C202.908,257.488 203.19,257.69 203.418,257.942C203.646,258.194 203.82,258.49 203.94,258.83C204.06,259.17 204.12,259.532 204.12,259.916L204.12,260.276L199.44,260.276Z" style="fill:rgb(62,109,156);fill-rule:nonzero;"/>
                    <path d="M209.652,258.572C209.516,258.364 209.326,258.188 209.082,258.044C208.838,257.9 208.56,257.828 208.248,257.828C207.92,257.82 207.626,257.872 207.366,257.984C207.106,258.096 206.884,258.252 206.7,258.452C206.516,258.652 206.376,258.89 206.28,259.166C206.184,259.442 206.136,259.74 206.136,260.06C206.136,260.38 206.184,260.678 206.28,260.954C206.376,261.23 206.516,261.468 206.7,261.668C206.884,261.868 207.106,262.024 207.366,262.136C207.626,262.248 207.92,262.3 208.248,262.292C208.56,262.292 208.838,262.22 209.082,262.076C209.326,261.932 209.516,261.756 209.652,261.548L210.3,262.04C210.02,262.368 209.704,262.61 209.352,262.766C209,262.922 208.632,263.004 208.248,263.012C207.792,263.02 207.38,262.95 207.012,262.802C206.644,262.654 206.33,262.448 206.07,262.184C205.81,261.92 205.612,261.606 205.476,261.242C205.34,260.878 205.272,260.484 205.272,260.06C205.272,259.636 205.34,259.242 205.476,258.878C205.612,258.514 205.81,258.2 206.07,257.936C206.33,257.672 206.644,257.466 207.012,257.318C207.38,257.17 207.792,257.1 208.248,257.108C208.632,257.116 209,257.198 209.352,257.354C209.704,257.51 210.02,257.752 210.3,258.08L209.652,258.572Z" style="fill:rgb(62,109,156);fill-rule:nonzero;"/>
                    <path d="M212.496,255.092C212.496,255.26 212.436,255.398 212.316,255.506C212.196,255.614 212.064,255.668 211.92,255.668C211.776,255.668 211.644,255.614 211.524,255.506C211.404,255.398 211.344,255.26 211.344,255.092C211.344,254.924 211.404,254.786 211.524,254.678C211.644,254.57 211.776,254.516 211.92,254.516C212.064,254.516 212.196,254.57 212.316,254.678C212.436,254.786 212.496,254.924 212.496,255.092ZM212.316,262.868L211.524,262.868L211.524,257.252L212.316,257.252L212.316,262.868Z" style="fill:rgb(62,109,156);fill-rule:nonzero;"/>
                    <path d="M217.2,258.584C217.08,258.352 216.92,258.168 216.72,258.032C216.52,257.896 216.276,257.828 215.988,257.828C215.852,257.828 215.714,257.844 215.574,257.876C215.434,257.908 215.308,257.958 215.196,258.026C215.084,258.094 214.994,258.18 214.926,258.284C214.858,258.388 214.824,258.516 214.824,258.668C214.824,258.932 214.916,259.124 215.1,259.244C215.284,259.364 215.56,259.468 215.928,259.556L216.732,259.748C217.124,259.836 217.45,260.014 217.71,260.282C217.97,260.55 218.1,260.884 218.1,261.284C218.1,261.588 218.038,261.85 217.914,262.07C217.79,262.29 217.626,262.47 217.422,262.61C217.218,262.75 216.984,262.852 216.72,262.916C216.456,262.98 216.188,263.012 215.916,263.012C215.484,263.012 215.082,262.93 214.71,262.766C214.338,262.602 214.02,262.32 213.756,261.92L214.44,261.452C214.6,261.708 214.802,261.912 215.046,262.064C215.29,262.216 215.58,262.292 215.916,262.292C216.076,262.292 216.236,262.274 216.396,262.238C216.556,262.202 216.698,262.146 216.822,262.07C216.946,261.994 217.046,261.896 217.122,261.776C217.198,261.656 217.236,261.516 217.236,261.356C217.236,261.076 217.132,260.874 216.924,260.75C216.716,260.626 216.464,260.528 216.168,260.456L215.4,260.276C215.304,260.252 215.174,260.212 215.01,260.156C214.846,260.1 214.686,260.016 214.53,259.904C214.374,259.792 214.24,259.646 214.128,259.466C214.016,259.286 213.96,259.064 213.96,258.8C213.96,258.512 214.018,258.26 214.134,258.044C214.25,257.828 214.406,257.652 214.602,257.516C214.798,257.38 215.02,257.278 215.268,257.21C215.516,257.142 215.772,257.108 216.036,257.108C216.428,257.108 216.792,257.184 217.128,257.336C217.464,257.488 217.724,257.748 217.908,258.116L217.2,258.584Z" style="fill:rgb(62,109,156);fill-rule:nonzero;"/>
                    <path d="M220.488,255.092C220.488,255.26 220.428,255.398 220.308,255.506C220.188,255.614 220.056,255.668 219.912,255.668C219.768,255.668 219.636,255.614 219.516,255.506C219.396,255.398 219.336,255.26 219.336,255.092C219.336,254.924 219.396,254.786 219.516,254.678C219.636,254.57 219.768,254.516 219.912,254.516C220.056,254.516 220.188,254.57 220.308,254.678C220.428,254.786 220.488,254.924 220.488,255.092ZM220.308,262.868L219.516,262.868L219.516,257.252L220.308,257.252L220.308,262.868Z" style="fill:rgb(62,109,156);fill-rule:nonzero;"/>
                    <path d="M227.028,260.06C227.028,259.748 226.978,259.456 226.878,259.184C226.778,258.912 226.636,258.676 226.452,258.476C226.268,258.276 226.046,258.118 225.786,258.002C225.526,257.886 225.232,257.828 224.904,257.828C224.576,257.828 224.282,257.886 224.022,258.002C223.762,258.118 223.542,258.276 223.362,258.476C223.182,258.676 223.042,258.912 222.942,259.184C222.842,259.456 222.792,259.748 222.792,260.06C222.792,260.372 222.842,260.664 222.942,260.936C223.042,261.208 223.182,261.444 223.362,261.644C223.542,261.844 223.762,262.002 224.022,262.118C224.282,262.234 224.576,262.292 224.904,262.292C225.232,262.292 225.526,262.234 225.786,262.118C226.046,262.002 226.268,261.844 226.452,261.644C226.636,261.444 226.778,261.208 226.878,260.936C226.978,260.664 227.028,260.372 227.028,260.06ZM227.892,260.06C227.892,260.484 227.818,260.876 227.67,261.236C227.522,261.596 227.316,261.908 227.052,262.172C226.788,262.436 226.474,262.642 226.11,262.79C225.746,262.938 225.344,263.012 224.904,263.012C224.472,263.012 224.074,262.938 223.71,262.79C223.346,262.642 223.032,262.436 222.768,262.172C222.504,261.908 222.298,261.596 222.15,261.236C222.002,260.876 221.928,260.484 221.928,260.06C221.928,259.636 222.002,259.244 222.15,258.884C222.298,258.524 222.504,258.212 222.768,257.948C223.032,257.684 223.346,257.478 223.71,257.33C224.074,257.182 224.472,257.108 224.904,257.108C225.344,257.108 225.746,257.182 226.11,257.33C226.474,257.478 226.788,257.684 227.052,257.948C227.316,258.212 227.522,258.524 227.67,258.884C227.818,259.244 227.892,259.636 227.892,260.06Z" style="fill:rgb(62,109,156);fill-rule:nonzero;"/>
                    <path d="M230.088,257.252C230.104,257.404 230.114,257.554 230.118,257.702C230.122,257.85 230.124,258 230.124,258.152L230.148,258.152C230.236,258 230.348,257.86 230.484,257.732C230.62,257.604 230.772,257.494 230.94,257.402C231.108,257.31 231.286,257.238 231.474,257.186C231.662,257.134 231.848,257.108 232.032,257.108C232.752,257.108 233.284,257.298 233.628,257.678C233.972,258.058 234.144,258.6 234.144,259.304L234.144,262.868L233.352,262.868L233.352,259.76C233.352,259.136 233.244,258.658 233.028,258.326C232.812,257.994 232.412,257.828 231.828,257.828C231.788,257.828 231.676,257.844 231.492,257.876C231.308,257.908 231.114,257.996 230.91,258.14C230.706,258.284 230.524,258.5 230.364,258.788C230.204,259.076 230.124,259.476 230.124,259.988L230.124,262.868L229.332,262.868L229.332,258.488C229.332,258.336 229.326,258.144 229.314,257.912C229.302,257.68 229.288,257.46 229.272,257.252L230.088,257.252Z" style="fill:rgb(62,109,156);fill-rule:nonzero;"/>
                    <path d="M243.648,255.776C243.272,255.224 242.724,254.948 242.004,254.948C241.78,254.948 241.56,254.978 241.344,255.038C241.128,255.098 240.934,255.19 240.762,255.314C240.59,255.438 240.452,255.598 240.348,255.794C240.244,255.99 240.192,256.22 240.192,256.484C240.192,256.868 240.3,257.166 240.516,257.378C240.732,257.59 241,257.764 241.32,257.9C241.64,258.036 241.99,258.158 242.37,258.266C242.75,258.374 243.1,258.518 243.42,258.698C243.74,258.878 244.008,259.116 244.224,259.412C244.44,259.708 244.548,260.112 244.548,260.624C244.548,261.008 244.466,261.354 244.302,261.662C244.138,261.97 243.922,262.228 243.654,262.436C243.386,262.644 243.086,262.804 242.754,262.916C242.422,263.028 242.088,263.084 241.752,263.084C241.232,263.084 240.738,262.986 240.27,262.79C239.802,262.594 239.404,262.272 239.076,261.824L239.856,261.26C240.04,261.572 240.296,261.822 240.624,262.01C240.952,262.198 241.34,262.292 241.788,262.292C242.004,262.292 242.22,262.258 242.436,262.19C242.652,262.122 242.846,262.022 243.018,261.89C243.19,261.758 243.332,261.596 243.444,261.404C243.556,261.212 243.612,260.992 243.612,260.744C243.612,260.448 243.55,260.202 243.426,260.006C243.302,259.81 243.138,259.646 242.934,259.514C242.73,259.382 242.498,259.272 242.238,259.184C241.978,259.096 241.71,259.008 241.434,258.92C241.158,258.832 240.89,258.732 240.63,258.62C240.37,258.508 240.138,258.366 239.934,258.194C239.73,258.022 239.566,257.806 239.442,257.546C239.318,257.286 239.256,256.96 239.256,256.568C239.256,256.16 239.334,255.804 239.49,255.5C239.646,255.196 239.854,254.944 240.114,254.744C240.374,254.544 240.668,254.396 240.996,254.3C241.324,254.204 241.66,254.156 242.004,254.156C242.484,254.156 242.92,254.232 243.312,254.384C243.704,254.536 244.068,254.804 244.404,255.188L243.648,255.776Z" style="fill:rgb(62,109,156);fill-rule:nonzero;"/>
                    <path d="M250.068,262.868C250.052,262.716 250.042,262.566 250.038,262.418C250.034,262.27 250.032,262.12 250.032,261.968L250.008,261.968C249.92,262.12 249.808,262.26 249.672,262.388C249.536,262.516 249.384,262.626 249.216,262.718C249.048,262.81 248.87,262.882 248.682,262.934C248.494,262.986 248.308,263.012 248.124,263.012C247.404,263.012 246.872,262.822 246.528,262.442C246.184,262.062 246.012,261.52 246.012,260.816L246.012,257.252L246.804,257.252L246.804,260.36C246.804,260.672 246.828,260.948 246.876,261.188C246.924,261.428 247.006,261.63 247.122,261.794C247.238,261.958 247.394,262.082 247.59,262.166C247.786,262.25 248.032,262.292 248.328,262.292C248.368,262.292 248.48,262.276 248.664,262.244C248.848,262.212 249.042,262.124 249.246,261.98C249.45,261.836 249.632,261.62 249.792,261.332C249.952,261.044 250.032,260.644 250.032,260.132L250.032,257.252L250.824,257.252L250.824,261.632C250.824,261.784 250.83,261.976 250.842,262.208C250.854,262.44 250.868,262.66 250.884,262.868L250.068,262.868Z" style="fill:rgb(62,109,156);fill-rule:nonzero;"/>
                    <path d="M257.808,260.06C257.808,259.748 257.758,259.456 257.658,259.184C257.558,258.912 257.416,258.676 257.232,258.476C257.048,258.276 256.826,258.118 256.566,258.002C256.306,257.886 256.012,257.828 255.684,257.828C255.356,257.828 255.056,257.886 254.784,258.002C254.512,258.118 254.276,258.276 254.076,258.476C253.876,258.676 253.72,258.912 253.608,259.184C253.496,259.456 253.44,259.748 253.44,260.06C253.44,260.372 253.496,260.664 253.608,260.936C253.72,261.208 253.876,261.444 254.076,261.644C254.276,261.844 254.512,262.002 254.784,262.118C255.056,262.234 255.356,262.292 255.684,262.292C256.012,262.292 256.306,262.234 256.566,262.118C256.826,262.002 257.048,261.844 257.232,261.644C257.416,261.444 257.558,261.208 257.658,260.936C257.758,260.664 257.808,260.372 257.808,260.06ZM252.684,257.252L253.476,257.252L253.476,258.188L253.5,258.188C253.628,257.996 253.78,257.832 253.956,257.696C254.132,257.56 254.316,257.448 254.508,257.36C254.7,257.272 254.898,257.208 255.102,257.168C255.306,257.128 255.5,257.108 255.684,257.108C256.124,257.108 256.526,257.182 256.89,257.33C257.254,257.478 257.568,257.684 257.832,257.948C258.096,258.212 258.302,258.524 258.45,258.884C258.598,259.244 258.672,259.636 258.672,260.06C258.672,260.484 258.598,260.876 258.45,261.236C258.302,261.596 258.096,261.908 257.832,262.172C257.568,262.436 257.254,262.642 256.89,262.79C256.526,262.938 256.124,263.012 255.684,263.012C255.5,263.012 255.306,262.992 255.102,262.952C254.898,262.912 254.7,262.848 254.508,262.76C254.316,262.672 254.132,262.56 253.956,262.424C253.78,262.288 253.628,262.124 253.5,261.932L253.476,261.932L253.476,266.324L252.684,266.324L252.684,257.252Z" style="fill:rgb(62,109,156);fill-rule:nonzero;"/>
                    <path d="M265.14,260.06C265.14,259.748 265.09,259.456 264.99,259.184C264.89,258.912 264.748,258.676 264.564,258.476C264.38,258.276 264.158,258.118 263.898,258.002C263.638,257.886 263.344,257.828 263.016,257.828C262.688,257.828 262.388,257.886 262.116,258.002C261.844,258.118 261.608,258.276 261.408,258.476C261.208,258.676 261.052,258.912 260.94,259.184C260.828,259.456 260.772,259.748 260.772,260.06C260.772,260.372 260.828,260.664 260.94,260.936C261.052,261.208 261.208,261.444 261.408,261.644C261.608,261.844 261.844,262.002 262.116,262.118C262.388,262.234 262.688,262.292 263.016,262.292C263.344,262.292 263.638,262.234 263.898,262.118C264.158,262.002 264.38,261.844 264.564,261.644C264.748,261.444 264.89,261.208 264.99,260.936C265.09,260.664 265.14,260.372 265.14,260.06ZM260.016,257.252L260.808,257.252L260.808,258.188L260.832,258.188C260.96,257.996 261.112,257.832 261.288,257.696C261.464,257.56 261.648,257.448 261.84,257.36C262.032,257.272 262.23,257.208 262.434,257.168C262.638,257.128 262.832,257.108 263.016,257.108C263.456,257.108 263.858,257.182 264.222,257.33C264.586,257.478 264.9,257.684 265.164,257.948C265.428,258.212 265.634,258.524 265.782,258.884C265.93,259.244 266.004,259.636 266.004,260.06C266.004,260.484 265.93,260.876 265.782,261.236C265.634,261.596 265.428,261.908 265.164,262.172C264.9,262.436 264.586,262.642 264.222,262.79C263.858,262.938 263.456,263.012 263.016,263.012C262.832,263.012 262.638,262.992 262.434,262.952C262.23,262.912 262.032,262.848 261.84,262.76C261.648,262.672 261.464,262.56 261.288,262.424C261.112,262.288 260.96,262.124 260.832,261.932L260.808,261.932L260.808,266.324L260.016,266.324L260.016,257.252Z" style="fill:rgb(62,109,156);fill-rule:nonzero;"/>
                    <path d="M272.16,260.06C272.16,259.748 272.11,259.456 272.01,259.184C271.91,258.912 271.768,258.676 271.584,258.476C271.4,258.276 271.178,258.118 270.918,258.002C270.658,257.886 270.364,257.828 270.036,257.828C269.708,257.828 269.414,257.886 269.154,258.002C268.894,258.118 268.674,258.276 268.494,258.476C268.314,258.676 268.174,258.912 268.074,259.184C267.974,259.456 267.924,259.748 267.924,260.06C267.924,260.372 267.974,260.664 268.074,260.936C268.174,261.208 268.314,261.444 268.494,261.644C268.674,261.844 268.894,262.002 269.154,262.118C269.414,262.234 269.708,262.292 270.036,262.292C270.364,262.292 270.658,262.234 270.918,262.118C271.178,262.002 271.4,261.844 271.584,261.644C271.768,261.444 271.91,261.208 272.01,260.936C272.11,260.664 272.16,260.372 272.16,260.06ZM273.024,260.06C273.024,260.484 272.95,260.876 272.802,261.236C272.654,261.596 272.448,261.908 272.184,262.172C271.92,262.436 271.606,262.642 271.242,262.79C270.878,262.938 270.476,263.012 270.036,263.012C269.604,263.012 269.206,262.938 268.842,262.79C268.478,262.642 268.164,262.436 267.9,262.172C267.636,261.908 267.43,261.596 267.282,261.236C267.134,260.876 267.06,260.484 267.06,260.06C267.06,259.636 267.134,259.244 267.282,258.884C267.43,258.524 267.636,258.212 267.9,257.948C268.164,257.684 268.478,257.478 268.842,257.33C269.206,257.182 269.604,257.108 270.036,257.108C270.476,257.108 270.878,257.182 271.242,257.33C271.606,257.478 271.92,257.684 272.184,257.948C272.448,258.212 272.654,258.524 272.802,258.884C272.95,259.244 273.024,259.636 273.024,260.06Z" style="fill:rgb(62,109,156);fill-rule:nonzero;"/>
                    <path d="M274.548,259.004C274.548,258.756 274.542,258.504 274.53,258.248C274.518,257.992 274.508,257.66 274.5,257.252L275.28,257.252L275.28,258.296L275.304,258.296C275.36,258.144 275.44,257.998 275.544,257.858C275.648,257.718 275.774,257.592 275.922,257.48C276.07,257.368 276.242,257.278 276.438,257.21C276.634,257.142 276.856,257.108 277.104,257.108C277.328,257.108 277.524,257.132 277.692,257.18L277.536,257.96C277.432,257.92 277.28,257.9 277.08,257.9C276.776,257.9 276.516,257.958 276.3,258.074C276.084,258.19 275.904,258.338 275.76,258.518C275.616,258.698 275.51,258.892 275.442,259.1C275.374,259.308 275.34,259.508 275.34,259.7L275.34,262.868L274.548,262.868L274.548,259.004Z" style="fill:rgb(62,109,156);fill-rule:nonzero;"/>
                    <path d="M281.352,257.972L279.732,257.972L279.732,261.284C279.732,261.492 279.752,261.662 279.792,261.794C279.832,261.926 279.888,262.028 279.96,262.1C280.032,262.172 280.118,262.222 280.218,262.25C280.318,262.278 280.428,262.292 280.548,262.292C280.684,262.292 280.824,262.272 280.968,262.232C281.112,262.192 281.244,262.14 281.364,262.076L281.4,262.808C281.104,262.944 280.748,263.012 280.332,263.012C280.18,263.012 280.022,262.992 279.858,262.952C279.694,262.912 279.544,262.836 279.408,262.724C279.272,262.612 279.16,262.46 279.072,262.268C278.984,262.076 278.94,261.824 278.94,261.512L278.94,257.972L277.752,257.972L277.752,257.252L278.94,257.252L278.94,255.668L279.732,255.668L279.732,257.252L281.352,257.252L281.352,257.972Z" style="fill:rgb(62,109,156);fill-rule:nonzero;"/>
                    <path d="M290.076,255.776C289.7,255.224 289.152,254.948 288.432,254.948C288.208,254.948 287.988,254.978 287.772,255.038C287.556,255.098 287.362,255.19 287.19,255.314C287.018,255.438 286.88,255.598 286.776,255.794C286.672,255.99 286.62,256.22 286.62,256.484C286.62,256.868 286.728,257.166 286.944,257.378C287.16,257.59 287.428,257.764 287.748,257.9C288.068,258.036 288.418,258.158 288.798,258.266C289.178,258.374 289.528,258.518 289.848,258.698C290.168,258.878 290.436,259.116 290.652,259.412C290.868,259.708 290.976,260.112 290.976,260.624C290.976,261.008 290.894,261.354 290.73,261.662C290.566,261.97 290.35,262.228 290.082,262.436C289.814,262.644 289.514,262.804 289.182,262.916C288.85,263.028 288.516,263.084 288.18,263.084C287.66,263.084 287.166,262.986 286.698,262.79C286.23,262.594 285.832,262.272 285.504,261.824L286.284,261.26C286.468,261.572 286.724,261.822 287.052,262.01C287.38,262.198 287.768,262.292 288.216,262.292C288.432,262.292 288.648,262.258 288.864,262.19C289.08,262.122 289.274,262.022 289.446,261.89C289.618,261.758 289.76,261.596 289.872,261.404C289.984,261.212 290.04,260.992 290.04,260.744C290.04,260.448 289.978,260.202 289.854,260.006C289.73,259.81 289.566,259.646 289.362,259.514C289.158,259.382 288.926,259.272 288.666,259.184C288.406,259.096 288.138,259.008 287.862,258.92C287.586,258.832 287.318,258.732 287.058,258.62C286.798,258.508 286.566,258.366 286.362,258.194C286.158,258.022 285.994,257.806 285.87,257.546C285.746,257.286 285.684,256.96 285.684,256.568C285.684,256.16 285.762,255.804 285.918,255.5C286.074,255.196 286.282,254.944 286.542,254.744C286.802,254.544 287.096,254.396 287.424,254.3C287.752,254.204 288.088,254.156 288.432,254.156C288.912,254.156 289.348,254.232 289.74,254.384C290.132,254.536 290.496,254.804 290.832,255.188L290.076,255.776Z" style="fill:rgb(62,109,156);fill-rule:nonzero;"/>
                    <path d="M294.528,261.896L296.244,257.252L297.204,257.252L294.396,264.332C294.228,264.764 294.014,265.108 293.754,265.364C293.494,265.62 293.12,265.748 292.632,265.748C292.512,265.748 292.39,265.744 292.266,265.736C292.142,265.728 292.02,265.704 291.9,265.664L291.984,264.896C292.152,264.984 292.352,265.028 292.584,265.028C292.864,265.028 293.084,264.94 293.244,264.764C293.404,264.588 293.544,264.34 293.664,264.02L294.072,262.94L291.768,257.252L292.764,257.252L294.528,261.896Z" style="fill:rgb(62,109,156);fill-rule:nonzero;"/>
                    <path d="M301.2,258.584C301.08,258.352 300.92,258.168 300.72,258.032C300.52,257.896 300.276,257.828 299.988,257.828C299.852,257.828 299.714,257.844 299.574,257.876C299.434,257.908 299.308,257.958 299.196,258.026C299.084,258.094 298.994,258.18 298.926,258.284C298.858,258.388 298.824,258.516 298.824,258.668C298.824,258.932 298.916,259.124 299.1,259.244C299.284,259.364 299.56,259.468 299.928,259.556L300.732,259.748C301.124,259.836 301.45,260.014 301.71,260.282C301.97,260.55 302.1,260.884 302.1,261.284C302.1,261.588 302.038,261.85 301.914,262.07C301.79,262.29 301.626,262.47 301.422,262.61C301.218,262.75 300.984,262.852 300.72,262.916C300.456,262.98 300.188,263.012 299.916,263.012C299.484,263.012 299.082,262.93 298.71,262.766C298.338,262.602 298.02,262.32 297.756,261.92L298.44,261.452C298.6,261.708 298.802,261.912 299.046,262.064C299.29,262.216 299.58,262.292 299.916,262.292C300.076,262.292 300.236,262.274 300.396,262.238C300.556,262.202 300.698,262.146 300.822,262.07C300.946,261.994 301.046,261.896 301.122,261.776C301.198,261.656 301.236,261.516 301.236,261.356C301.236,261.076 301.132,260.874 300.924,260.75C300.716,260.626 300.464,260.528 300.168,260.456L299.4,260.276C299.304,260.252 299.174,260.212 299.01,260.156C298.846,260.1 298.686,260.016 298.53,259.904C298.374,259.792 298.24,259.646 298.128,259.466C298.016,259.286 297.96,259.064 297.96,258.8C297.96,258.512 298.018,258.26 298.134,258.044C298.25,257.828 298.406,257.652 298.602,257.516C298.798,257.38 299.02,257.278 299.268,257.21C299.516,257.142 299.772,257.108 300.036,257.108C300.428,257.108 300.792,257.184 301.128,257.336C301.464,257.488 301.724,257.748 301.908,258.116L301.2,258.584Z" style="fill:rgb(62,109,156);fill-rule:nonzero;"/>
                    <path d="M306.24,257.972L304.62,257.972L304.62,261.284C304.62,261.492 304.64,261.662 304.68,261.794C304.72,261.926 304.776,262.028 304.848,262.1C304.92,262.172 305.006,262.222 305.106,262.25C305.206,262.278 305.316,262.292 305.436,262.292C305.572,262.292 305.712,262.272 305.856,262.232C306,262.192 306.132,262.14 306.252,262.076L306.288,262.808C305.992,262.944 305.636,263.012 305.22,263.012C305.068,263.012 304.91,262.992 304.746,262.952C304.582,262.912 304.432,262.836 304.296,262.724C304.16,262.612 304.048,262.46 303.96,262.268C303.872,262.076 303.828,261.824 303.828,261.512L303.828,257.972L302.64,257.972L302.64,257.252L303.828,257.252L303.828,255.668L304.62,255.668L304.62,257.252L306.24,257.252L306.24,257.972Z" style="fill:rgb(62,109,156);fill-rule:nonzero;"/>
                    <path d="M311.688,259.628C311.688,259.092 311.528,258.658 311.208,258.326C310.888,257.994 310.44,257.828 309.864,257.828C309.608,257.828 309.36,257.878 309.12,257.978C308.88,258.078 308.67,258.212 308.49,258.38C308.31,258.548 308.166,258.74 308.058,258.956C307.95,259.172 307.896,259.396 307.896,259.628L311.688,259.628ZM307.872,260.276C307.896,260.556 307.964,260.82 308.076,261.068C308.188,261.316 308.336,261.53 308.52,261.71C308.704,261.89 308.916,262.032 309.156,262.136C309.396,262.24 309.656,262.292 309.936,262.292C310.36,262.292 310.726,262.194 311.034,261.998C311.342,261.802 311.576,261.576 311.736,261.32L312.348,261.824C312.012,262.248 311.642,262.552 311.238,262.736C310.834,262.92 310.4,263.012 309.936,263.012C309.52,263.012 309.134,262.938 308.778,262.79C308.422,262.642 308.116,262.436 307.86,262.172C307.604,261.908 307.402,261.596 307.254,261.236C307.106,260.876 307.032,260.484 307.032,260.06C307.032,259.636 307.104,259.244 307.248,258.884C307.392,258.524 307.592,258.212 307.848,257.948C308.104,257.684 308.404,257.478 308.748,257.33C309.092,257.182 309.464,257.108 309.864,257.108C310.288,257.108 310.668,257.184 311.004,257.336C311.34,257.488 311.622,257.69 311.85,257.942C312.078,258.194 312.252,258.49 312.372,258.83C312.492,259.17 312.552,259.532 312.552,259.916L312.552,260.276L307.872,260.276Z" style="fill:rgb(62,109,156);fill-rule:nonzero;"/>
                    <path d="M313.992,258.5C313.992,258.292 313.986,258.084 313.974,257.876C313.962,257.668 313.948,257.46 313.932,257.252L314.784,257.252L314.784,258.104L314.808,258.104C315,257.776 315.266,257.528 315.606,257.36C315.946,257.192 316.284,257.108 316.62,257.108C316.772,257.108 316.934,257.124 317.106,257.156C317.278,257.188 317.444,257.246 317.604,257.33C317.764,257.414 317.914,257.532 318.054,257.684C318.194,257.836 318.312,258.032 318.408,258.272C318.568,257.912 318.822,257.628 319.17,257.42C319.518,257.212 319.88,257.108 320.256,257.108C320.976,257.108 321.508,257.298 321.852,257.678C322.196,258.058 322.368,258.6 322.368,259.304L322.368,262.868L321.576,262.868L321.576,259.592C321.576,259.024 321.476,258.588 321.276,258.284C321.076,257.98 320.704,257.828 320.16,257.828C319.864,257.828 319.616,257.886 319.416,258.002C319.216,258.118 319.054,258.272 318.93,258.464C318.806,258.656 318.716,258.874 318.66,259.118C318.604,259.362 318.576,259.616 318.576,259.88L318.576,262.868L317.784,262.868L317.784,259.592C317.784,259.024 317.684,258.588 317.484,258.284C317.284,257.98 316.912,257.828 316.368,257.828C316.32,257.828 316.21,257.844 316.038,257.876C315.866,257.908 315.688,257.996 315.504,258.14C315.32,258.284 315.154,258.5 315.006,258.788C314.858,259.076 314.784,259.476 314.784,259.988L314.784,262.868L313.992,262.868L313.992,258.5Z" style="fill:rgb(62,109,156);fill-rule:nonzero;"/>
                </g>
            </g>
            <g transform="matrix(0.224981,0,0,0.773725,52.4205,198.128)">
                <g transform="matrix(1,0,0,1,-233,-256.07)">
                    <clipPath id="_clip2">
                        <rect x="0" y="0" width="466" height="512.14"/>
                    </clipPath>
                    <g clip-path="url(#_clip2)">
                        <path d="M232.2,0C319.09,55.08 397.59,81.13 464.95,74.98C476.72,312.95 388.84,453.48 233.09,512.14C82.7,457.24 -6.26,322.75 0.34,71.36C79.42,75.5 157.01,58.41 232.2,0ZM231.98,195C245.38,181.03 254.76,168.95 275.41,166.58C314.17,162.12 349.8,201.8 330.23,240.87C324.66,252 313.32,265.22 300.78,278.21C287.01,292.46 271.77,306.43 261.09,317.02L231.98,345.9L207.94,322.73C179,294.86 131.82,259.79 130.27,216.33C129.17,185.89 153.19,166.39 180.82,166.75C205.52,167.07 215.9,179.36 231.98,195ZM232.35,39.64C304.41,85.31 373.57,110.99 429.44,105.88C439.2,303.23 362.25,423.85 233.11,472.49C108.37,426.97 30.53,311.37 36,102.89C108.38,106.68 174.71,84.42 232.35,39.64Z" style="fill:rgb(242,13,13);"/>
                    </g>
                </g>
            </g>
        </g>
    </g>
</svg>
